<mxfile host="app.diagrams.net" modified="2024-02-04T10:00:39.416Z" agent="Mozilla/5.0 (Windows NT 10.0; Win64; x64) AppleWebKit/537.36 (KHTML, like Gecko) Chrome/121.0.0.0 Safari/537.36" etag="WRcav5Si7aCnCzseYb2z" version="23.0.2" type="device">
  <diagram name="Sivu-1" id="-lWhH2luC0LmiN5XKpas">
    <mxGraphModel dx="1802" dy="765" grid="0" gridSize="10" guides="1" tooltips="1" connect="1" arrows="1" fold="1" page="1" pageScale="1" pageWidth="1169" pageHeight="827" math="0" shadow="0">
      <root>
        <mxCell id="0" />
        <mxCell id="1" parent="0" />
        <mxCell id="2OoL3_RYChS5sPEIDO6c-1" value="Asiakas" style="shape=umlActor;verticalLabelPosition=bottom;verticalAlign=top;html=1;outlineConnect=0;" vertex="1" parent="1">
          <mxGeometry x="183" y="129" width="30" height="60" as="geometry" />
        </mxCell>
        <mxCell id="2OoL3_RYChS5sPEIDO6c-2" value="Lipunmyyjä" style="shape=umlActor;verticalLabelPosition=bottom;verticalAlign=top;html=1;outlineConnect=0;" vertex="1" parent="1">
          <mxGeometry x="792" y="129" width="30" height="60" as="geometry" />
        </mxCell>
        <mxCell id="2OoL3_RYChS5sPEIDO6c-3" value="Järjestelmänvalvoja" style="shape=umlActor;verticalLabelPosition=bottom;verticalAlign=top;html=1;outlineConnect=0;" vertex="1" parent="1">
          <mxGeometry x="792" y="384" width="30" height="60" as="geometry" />
        </mxCell>
        <mxCell id="2OoL3_RYChS5sPEIDO6c-5" value="" style="rounded=0;whiteSpace=wrap;html=1;" vertex="1" parent="1">
          <mxGeometry x="295" y="43" width="413" height="881" as="geometry" />
        </mxCell>
        <mxCell id="2OoL3_RYChS5sPEIDO6c-6" value="Osta lippu" style="ellipse;whiteSpace=wrap;html=1;" vertex="1" parent="1">
          <mxGeometry x="441.5" y="43" width="120" height="80" as="geometry" />
        </mxCell>
        <mxCell id="2OoL3_RYChS5sPEIDO6c-7" value="Myy lippu" style="ellipse;whiteSpace=wrap;html=1;" vertex="1" parent="1">
          <mxGeometry x="441.5" y="129" width="120" height="80" as="geometry" />
        </mxCell>
        <mxCell id="2OoL3_RYChS5sPEIDO6c-9" value="Luo tapahtuma" style="ellipse;whiteSpace=wrap;html=1;" vertex="1" parent="1">
          <mxGeometry x="577" y="745" width="120" height="80" as="geometry" />
        </mxCell>
        <mxCell id="2OoL3_RYChS5sPEIDO6c-10" value="Tulosta lippu" style="ellipse;whiteSpace=wrap;html=1;" vertex="1" parent="1">
          <mxGeometry x="441.5" y="387" width="120" height="80" as="geometry" />
        </mxCell>
        <mxCell id="2OoL3_RYChS5sPEIDO6c-11" value="Tarkasta lipun koodi" style="ellipse;whiteSpace=wrap;html=1;" vertex="1" parent="1">
          <mxGeometry x="441.5" y="301" width="120" height="80" as="geometry" />
        </mxCell>
        <mxCell id="2OoL3_RYChS5sPEIDO6c-12" value="Luo myyntitapahtuma" style="ellipse;whiteSpace=wrap;html=1;" vertex="1" parent="1">
          <mxGeometry x="441.5" y="215" width="120" height="80" as="geometry" />
        </mxCell>
        <mxCell id="2OoL3_RYChS5sPEIDO6c-13" value="Luo lipputyypit tapahtumaan" style="ellipse;whiteSpace=wrap;html=1;" vertex="1" parent="1">
          <mxGeometry x="577" y="832" width="120" height="80" as="geometry" />
        </mxCell>
        <mxCell id="2OoL3_RYChS5sPEIDO6c-15" value="Katso myyntiraportti" style="ellipse;whiteSpace=wrap;html=1;" vertex="1" parent="1">
          <mxGeometry x="441.5" y="473" width="120" height="80" as="geometry" />
        </mxCell>
        <mxCell id="2OoL3_RYChS5sPEIDO6c-16" value="Katso myyntitapahtumat" style="ellipse;whiteSpace=wrap;html=1;" vertex="1" parent="1">
          <mxGeometry x="441.5" y="559" width="120" height="80" as="geometry" />
        </mxCell>
        <mxCell id="2OoL3_RYChS5sPEIDO6c-17" value="Muokkaa tapahtuman tietojan" style="ellipse;whiteSpace=wrap;html=1;" vertex="1" parent="1">
          <mxGeometry x="577" y="653" width="120" height="80" as="geometry" />
        </mxCell>
        <mxCell id="2OoL3_RYChS5sPEIDO6c-18" value="" style="endArrow=none;html=1;rounded=0;entryX=0;entryY=0.5;entryDx=0;entryDy=0;" edge="1" parent="1" source="2OoL3_RYChS5sPEIDO6c-1" target="2OoL3_RYChS5sPEIDO6c-6">
          <mxGeometry width="50" height="50" relative="1" as="geometry">
            <mxPoint x="514" y="345" as="sourcePoint" />
            <mxPoint x="564" y="295" as="targetPoint" />
          </mxGeometry>
        </mxCell>
        <mxCell id="2OoL3_RYChS5sPEIDO6c-19" value="" style="endArrow=none;html=1;rounded=0;exitX=1;exitY=0.5;exitDx=0;exitDy=0;" edge="1" parent="1" source="2OoL3_RYChS5sPEIDO6c-7" target="2OoL3_RYChS5sPEIDO6c-2">
          <mxGeometry width="50" height="50" relative="1" as="geometry">
            <mxPoint x="514" y="345" as="sourcePoint" />
            <mxPoint x="564" y="295" as="targetPoint" />
          </mxGeometry>
        </mxCell>
        <mxCell id="2OoL3_RYChS5sPEIDO6c-20" value="" style="endArrow=none;html=1;rounded=0;exitX=1;exitY=0.5;exitDx=0;exitDy=0;" edge="1" parent="1" source="2OoL3_RYChS5sPEIDO6c-12">
          <mxGeometry width="50" height="50" relative="1" as="geometry">
            <mxPoint x="572" y="179" as="sourcePoint" />
            <mxPoint x="791" y="161" as="targetPoint" />
          </mxGeometry>
        </mxCell>
        <mxCell id="2OoL3_RYChS5sPEIDO6c-21" value="" style="endArrow=none;html=1;rounded=0;exitX=1;exitY=0.5;exitDx=0;exitDy=0;" edge="1" parent="1" source="2OoL3_RYChS5sPEIDO6c-11">
          <mxGeometry width="50" height="50" relative="1" as="geometry">
            <mxPoint x="514" y="345" as="sourcePoint" />
            <mxPoint x="789" y="162" as="targetPoint" />
          </mxGeometry>
        </mxCell>
        <mxCell id="2OoL3_RYChS5sPEIDO6c-22" value="" style="endArrow=none;html=1;rounded=0;exitX=1;exitY=0.5;exitDx=0;exitDy=0;" edge="1" parent="1" source="2OoL3_RYChS5sPEIDO6c-10">
          <mxGeometry width="50" height="50" relative="1" as="geometry">
            <mxPoint x="514" y="345" as="sourcePoint" />
            <mxPoint x="790" y="162" as="targetPoint" />
          </mxGeometry>
        </mxCell>
        <mxCell id="2OoL3_RYChS5sPEIDO6c-23" value="" style="endArrow=none;html=1;rounded=0;exitX=1;exitY=0.5;exitDx=0;exitDy=0;" edge="1" parent="1" source="2OoL3_RYChS5sPEIDO6c-15">
          <mxGeometry width="50" height="50" relative="1" as="geometry">
            <mxPoint x="738" y="344" as="sourcePoint" />
            <mxPoint x="791" y="164" as="targetPoint" />
          </mxGeometry>
        </mxCell>
        <mxCell id="2OoL3_RYChS5sPEIDO6c-24" value="" style="endArrow=none;html=1;rounded=0;exitX=1;exitY=0.5;exitDx=0;exitDy=0;" edge="1" parent="1" source="2OoL3_RYChS5sPEIDO6c-16">
          <mxGeometry width="50" height="50" relative="1" as="geometry">
            <mxPoint x="514" y="345" as="sourcePoint" />
            <mxPoint x="790" y="165" as="targetPoint" />
          </mxGeometry>
        </mxCell>
        <mxCell id="2OoL3_RYChS5sPEIDO6c-25" value="" style="endArrow=none;html=1;rounded=0;exitX=1;exitY=0.5;exitDx=0;exitDy=0;" edge="1" parent="1" source="2OoL3_RYChS5sPEIDO6c-13" target="2OoL3_RYChS5sPEIDO6c-3">
          <mxGeometry width="50" height="50" relative="1" as="geometry">
            <mxPoint x="789" y="862" as="sourcePoint" />
            <mxPoint x="564" y="562" as="targetPoint" />
          </mxGeometry>
        </mxCell>
        <mxCell id="2OoL3_RYChS5sPEIDO6c-26" value="" style="endArrow=none;html=1;rounded=0;exitX=1;exitY=0.5;exitDx=0;exitDy=0;" edge="1" parent="1" source="2OoL3_RYChS5sPEIDO6c-9">
          <mxGeometry width="50" height="50" relative="1" as="geometry">
            <mxPoint x="514" y="612" as="sourcePoint" />
            <mxPoint x="800" y="449" as="targetPoint" />
          </mxGeometry>
        </mxCell>
        <mxCell id="2OoL3_RYChS5sPEIDO6c-27" value="" style="endArrow=none;html=1;rounded=0;exitX=1;exitY=0.5;exitDx=0;exitDy=0;" edge="1" parent="1" source="2OoL3_RYChS5sPEIDO6c-17">
          <mxGeometry width="50" height="50" relative="1" as="geometry">
            <mxPoint x="514" y="612" as="sourcePoint" />
            <mxPoint x="801" y="446" as="targetPoint" />
          </mxGeometry>
        </mxCell>
        <mxCell id="2OoL3_RYChS5sPEIDO6c-28" value="&amp;lt;&amp;lt;include&amp;gt;&amp;gt;" style="html=1;verticalAlign=bottom;labelBackgroundColor=none;endArrow=open;endFill=0;dashed=1;rounded=0;" edge="1" parent="1" source="2OoL3_RYChS5sPEIDO6c-2" target="2OoL3_RYChS5sPEIDO6c-3">
          <mxGeometry width="160" relative="1" as="geometry">
            <mxPoint x="822" y="177" as="sourcePoint" />
            <mxPoint x="912" y="282" as="targetPoint" />
          </mxGeometry>
        </mxCell>
      </root>
    </mxGraphModel>
  </diagram>
</mxfile>
